<svg aria-hidden="true" style="width:0;height:0;position:absolute;overflow:hidden" xmlns="http://www.w3.org/2000/svg"><defs><symbol id="icon-cil_arrow-left" viewBox="0 0 32 32"><path d="M31.083 15H5.005l6-6-1.414-1.414L1.177 16l8.414 8.414L11.005 23l-6-6h26.078v-2z"/></symbol><symbol id="icon-cil_arrow-right" viewBox="0 0 32 32"><path d="M22.492 7.586 21.078 9l6 6H1v2h26.078l-6 6 1.414 1.414L30.906 16l-8.414-8.414z"/></symbol><symbol id="icon-close-btn" viewBox="0 0 32 32"><path d="M28.284.808.808 28.284A1.143 1.143 0 0 0 2.424 29.9L29.9 2.424A1.143 1.143 0 0 0 28.284.808z"/><path d="M2.424.808 29.9 28.284a1.143 1.143 0 0 1-1.616 1.616L.808 2.424A1.143 1.143 0 0 1 2.424.808z"/></symbol></defs></svg>