<svg aria-hidden="true" style="position:absolute;width:0;height:0;overflow:hidden" xmlns="http://www.w3.org/2000/svg">
  <defs>
<symbol id="icon-cil_arrow-left" viewBox="0 0 32 32">
<path d="M31.083 15h-26.078l6-6-1.414-1.414-8.414 8.414 8.414 8.414 1.414-1.414-6-6h26.078v-2z"></path>
</symbol>
<symbol id="icon-cil_arrow-right" viewBox="0 0 32 32">
<path d="M22.492 7.586l-1.414 1.414 6 6h-26.078v2h26.078l-6 6 1.414 1.414 8.414-8.414-8.414-8.414z"></path>
</symbol>
<symbol id="icon-close-btn" viewBox="0 0 32 32">
<path d="M28.284 0.808l-27.476 27.476c-0.446 0.446-0.446 1.17 0 1.616s1.17 0.446 1.616 0l27.476-27.476c0.446-0.446 0.446-1.17 0-1.616s-1.17-0.446-1.616 0z"></path>
<path d="M2.424 0.808l27.476 27.476c0.446 0.446 0.446 1.17 0 1.616s-1.17 0.446-1.616 0l-27.476-27.476c-0.446-0.446-0.446-1.17 0-1.616s1.17-0.446 1.616 0z"></path>
</symbol>
</defs>
</svg>
