<svg width="20" height="12" viewBox="0 0 20 12" fill="#C79002" xmlns="http://www.w3.org/2000/svg">
<path d="M0.454072 0.93918C0.735364 0.657973 1.11683 0.5 1.51457 0.5C1.91232 0.5 2.29378 0.657973 2.57507 0.93918L10.0001 8.36418L17.4251 0.93918C17.708 0.665943 18.0869 0.514751 18.4802 0.518168C18.8735 0.521586 19.2497 0.67934 19.5278 0.957452C19.8059 1.23556 19.9637 1.61178 19.9671 2.00508C19.9705 2.39837 19.8193 2.77728 19.5461 3.06018L11.0606 11.5457C10.7793 11.8269 10.3978 11.9849 10.0001 11.9849C9.60233 11.9849 9.22086 11.8269 8.93957 11.5457L0.454072 3.06018C0.172866 2.77889 0.0148926 2.39743 0.0148926 1.99968C0.0148926 1.60193 0.172866 1.22047 0.454072 0.93918V0.93918Z" fill="#C79002"/>
</svg>
